<svg width="154" height="30" viewBox="0 0 154 30" fill="none" xmlns="http://www.w3.org/2000/svg">
<path d="M1.76385 23.9717V10.8808H4.20987V13.0115H4.3718C4.64453 12.2899 5.09055 11.7274 5.70987 11.324C6.32919 10.9149 7.07067 10.7103 7.9343 10.7103C8.8093 10.7103 9.54226 10.9149 10.1332 11.324C10.7298 11.733 11.1701 12.2955 11.4542 13.0115H11.5906C11.9031 12.3126 12.4002 11.7558 13.082 11.341C13.7638 10.9205 14.5763 10.7103 15.5195 10.7103C16.707 10.7103 17.6758 11.0825 18.4258 11.8268C19.1815 12.5711 19.5593 13.6933 19.5593 15.1933V23.9717H17.011V15.4319C17.011 14.5455 16.7695 13.9035 16.2866 13.5058C15.8036 13.108 15.2269 12.9092 14.5565 12.9092C13.7269 12.9092 13.082 13.1649 12.6218 13.6762C12.1616 14.1819 11.9315 14.8325 11.9315 15.6279V23.9717H9.39169V15.27C9.39169 14.5597 9.1701 13.9887 8.72692 13.5569C8.28374 13.1251 7.70703 12.9092 6.9968 12.9092C6.51385 12.9092 6.06783 13.037 5.65874 13.2927C5.25533 13.5427 4.92862 13.8921 4.67862 14.341C4.4343 14.7899 4.31215 15.3097 4.31215 15.9007V23.9717H1.76385ZM24.1168 28.8808C23.7362 28.8808 23.3896 28.8495 23.0771 28.787C22.7646 28.7302 22.5316 28.6677 22.3782 28.5995L22.9918 26.5115C23.4577 26.6365 23.8725 26.6904 24.2362 26.6734C24.5998 26.6563 24.9208 26.52 25.1992 26.2643C25.4833 26.0086 25.7333 25.591 25.9492 25.0115L26.2646 24.1421L21.4748 10.8808H24.2021L27.5174 21.0399H27.6538L30.9691 10.8808H33.7049L28.31 25.7188C28.06 26.4007 27.7418 26.9774 27.3555 27.449C26.9691 27.9262 26.5089 28.2842 25.9748 28.5228C25.4407 28.7615 24.8214 28.8808 24.1168 28.8808ZM36.3043 6.51713H39.5004L45.0572 20.0853H45.2617L50.8185 6.51713H54.0146V23.9717H51.5089V11.341H51.3469L46.1992 23.9461H44.1197L38.9719 11.3325H38.81V23.9717H36.3043V6.51713ZM65.9315 18.5427V10.8808H68.4883V23.9717H65.9826V21.7046H65.8462C65.5451 22.4035 65.0621 22.9859 64.3974 23.4518C63.7383 23.912 62.9173 24.1421 61.9343 24.1421C61.0934 24.1421 60.3491 23.9575 59.7013 23.5882C59.0593 23.2132 58.5536 22.6592 58.1843 21.9262C57.8207 21.1933 57.6388 20.287 57.6388 19.2075V10.8808H60.1871V18.9007C60.1871 19.7927 60.4343 20.5029 60.9286 21.0313C61.4229 21.5597 62.065 21.824 62.8548 21.824C63.332 21.824 63.8065 21.7046 64.2781 21.466C64.7553 21.2274 65.1502 20.8666 65.4627 20.3836C65.7809 19.9007 65.9371 19.287 65.9315 18.5427ZM81.7219 14.0768L79.4123 14.4859C79.3157 14.1904 79.1623 13.9092 78.9521 13.6421C78.7475 13.3751 78.4691 13.1563 78.1168 12.9859C77.7646 12.8154 77.3242 12.7302 76.7958 12.7302C76.0742 12.7302 75.4719 12.8921 74.989 13.216C74.506 13.5342 74.2646 13.9461 74.2646 14.4518C74.2646 14.8893 74.4265 15.2416 74.7504 15.5086C75.0742 15.7757 75.5969 15.9944 76.3185 16.1649L78.3981 16.6421C79.6026 16.9205 80.5004 17.3495 81.0913 17.9291C81.6822 18.5086 81.9776 19.2615 81.9776 20.1876C81.9776 20.9717 81.7504 21.6705 81.2958 22.2842C80.8469 22.8921 80.2191 23.3694 79.4123 23.716C78.6112 24.0626 77.6822 24.2359 76.6254 24.2359C75.1594 24.2359 73.9634 23.9234 73.0373 23.2984C72.1112 22.6677 71.543 21.7728 71.3327 20.6137L73.7958 20.2387C73.9492 20.8808 74.2646 21.3666 74.7418 21.6961C75.2191 22.02 75.8413 22.1819 76.6083 22.1819C77.4435 22.1819 78.1112 22.0086 78.6112 21.662C79.1112 21.3097 79.3612 20.8808 79.3612 20.3751C79.3612 19.966 79.2077 19.6222 78.9009 19.3438C78.5998 19.0654 78.1367 18.8552 77.5117 18.7132L75.2958 18.2274C74.0742 17.949 73.1708 17.5058 72.5856 16.8978C72.006 16.2899 71.7163 15.52 71.7163 14.5882C71.7163 13.8154 71.9322 13.1393 72.364 12.5597C72.7958 11.9802 73.3924 11.5285 74.1538 11.2046C74.9151 10.8751 75.7873 10.7103 76.7702 10.7103C78.185 10.7103 79.2987 11.0171 80.1112 11.6308C80.9237 12.2387 81.4606 13.0541 81.7219 14.0768ZM84.7795 23.9717V10.8808H87.3278V23.9717H84.7795ZM86.0664 8.86088C85.6232 8.86088 85.2425 8.71316 84.9244 8.4177C84.6119 8.11657 84.4556 7.75861 84.4556 7.34384C84.4556 6.92338 84.6119 6.56543 84.9244 6.26997C85.2425 5.96884 85.6232 5.81827 86.0664 5.81827C86.5096 5.81827 86.8874 5.96884 87.1999 6.26997C87.5181 6.56543 87.6772 6.92338 87.6772 7.34384C87.6772 7.75861 87.5181 8.11657 87.1999 8.4177C86.8874 8.71316 86.5096 8.86088 86.0664 8.86088ZM96.2702 24.2359C95.0032 24.2359 93.9123 23.949 92.9975 23.3751C92.0884 22.7955 91.3896 21.9972 90.9009 20.9802C90.4123 19.9632 90.168 18.7984 90.168 17.4859C90.168 16.1563 90.418 14.983 90.918 13.966C91.418 12.9433 92.1225 12.145 93.0316 11.5711C93.9407 10.9972 95.0117 10.7103 96.2447 10.7103C97.239 10.7103 98.1254 10.895 98.9038 11.2643C99.6822 11.6279 100.31 12.1393 100.787 12.7984C101.27 13.4575 101.557 14.2274 101.648 15.108H99.168C99.0316 14.4944 98.7191 13.966 98.2305 13.5228C97.7475 13.0796 97.0998 12.858 96.2873 12.858C95.5771 12.858 94.9549 13.0455 94.4208 13.4205C93.8924 13.7899 93.4805 14.3183 93.185 15.0058C92.8896 15.6876 92.7418 16.4944 92.7418 17.4262C92.7418 18.3808 92.8867 19.2046 93.1765 19.8978C93.4663 20.591 93.8754 21.1279 94.4038 21.5086C94.9379 21.8893 95.5657 22.0796 96.2873 22.0796C96.7702 22.0796 97.2077 21.9916 97.5998 21.8154C97.9975 21.6336 98.3299 21.3751 98.5969 21.0399C98.8697 20.7046 99.06 20.3012 99.168 19.8296H101.648C101.557 20.6762 101.282 21.4319 100.821 22.0967C100.361 22.7615 99.7447 23.2842 98.9719 23.6649C98.2049 24.0455 97.3043 24.2359 96.2702 24.2359ZM108.183 24.2615C107.353 24.2615 106.603 24.108 105.933 23.8012C105.262 23.4887 104.731 23.037 104.339 22.4461C103.953 21.8552 103.76 21.1308 103.76 20.2728C103.76 19.5342 103.902 18.9262 104.186 18.449C104.47 17.9717 104.853 17.5938 105.336 17.3154C105.819 17.037 106.359 16.8268 106.956 16.6847C107.552 16.5427 108.16 16.4347 108.779 16.3609C109.564 16.27 110.2 16.1961 110.689 16.1393C111.177 16.0768 111.532 15.9774 111.754 15.841C111.975 15.7046 112.086 15.483 112.086 15.1762V15.1166C112.086 14.3722 111.876 13.7955 111.456 13.3865C111.041 12.9774 110.422 12.7728 109.598 12.7728C108.74 12.7728 108.064 12.9632 107.569 13.3438C107.081 13.7188 106.743 14.1365 106.555 14.5967L104.16 14.0512C104.444 13.2558 104.859 12.6137 105.404 12.1251C105.956 11.6308 106.589 11.2728 107.305 11.0512C108.021 10.824 108.774 10.7103 109.564 10.7103C110.086 10.7103 110.64 10.7728 111.225 10.8978C111.816 11.0171 112.368 11.2387 112.879 11.5626C113.396 11.8865 113.819 12.3495 114.149 12.9518C114.478 13.5484 114.643 14.324 114.643 15.2785V23.9717H112.154V22.1819H112.052C111.887 22.5115 111.64 22.8353 111.311 23.1535C110.981 23.4717 110.558 23.7359 110.041 23.9461C109.524 24.1563 108.904 24.2615 108.183 24.2615ZM108.737 22.216C109.441 22.216 110.044 22.0768 110.544 21.7984C111.049 21.52 111.433 21.1563 111.694 20.7075C111.961 20.2529 112.095 19.7671 112.095 19.2501V17.5626C112.004 17.6535 111.828 17.7387 111.566 17.8183C111.311 17.8921 111.018 17.9575 110.689 18.0143C110.359 18.0654 110.038 18.1137 109.725 18.1592C109.413 18.199 109.152 18.233 108.941 18.2615C108.447 18.324 107.995 18.4291 107.586 18.5768C107.183 18.7245 106.859 18.9376 106.615 19.216C106.376 19.4887 106.257 19.8524 106.257 20.3069C106.257 20.9376 106.49 21.4149 106.956 21.7387C107.422 22.0569 108.015 22.216 108.737 22.216ZM120.586 6.51713V23.9717H118.037V6.51713H120.586Z" fill="#FF0537"/>
<g clip-path="url(#clip0_113_322)">
<path d="M146.266 28H132.766C127.688 28 126.016 26.3892 126.016 21.5V8.5C126.016 3.61083 127.688 2 132.766 2H146.266C151.343 2 153.016 3.61083 153.016 8.5V21.5C153.016 26.3892 151.343 28 146.266 28Z" fill="url(#paint0_linear_113_322)"/>
<path d="M146.945 21.9936L146.541 21.5566C146.193 21.1745 145.793 20.8253 145.702 20.2969C145.633 19.8909 145.609 19.4978 145.47 19.1047C145.124 18.1247 144.549 17.258 143.905 16.4353C143.569 16.0056 143.476 15.9105 143.106 15.5082C142.151 14.4642 141.317 13.4952 140.248 12.5535C139.971 12.3104 139.647 11.8715 139.168 12.0672C138.971 12.1495 138.849 12.3195 138.705 12.4658C138.517 12.6541 138.323 12.8369 138.126 13.018C137.885 13.2374 137.636 13.4513 137.379 13.6561C137.178 13.8188 136.92 13.9541 136.823 14.2028C136.66 14.6215 136.933 14.9323 137.34 15.3748C139.043 17.2306 140.738 19.1724 142.863 20.615C143.254 20.8801 143.716 21.0922 144.181 21.2001C144.83 21.35 145.375 21.4579 145.825 21.9662C145.992 22.1545 146.146 22.3502 146.33 22.5202C146.52 22.6957 146.626 22.65 146.75 22.544C146.805 22.4964 146.866 22.4452 146.921 22.3977C147.044 22.2917 147.116 22.1765 146.945 21.9936ZM141.923 15.6399C141.898 15.7496 141.819 15.8374 141.644 15.8721C141.481 15.9032 141.314 15.852 141.167 15.7752C140.873 15.6216 140.624 15.4388 140.414 15.1883C140.174 14.9049 139.719 14.2869 140.176 14.0016C140.18 13.998 140.186 13.9962 140.19 13.9925C140.755 13.6616 141.494 14.6544 141.728 15.0182C141.834 15.1828 141.967 15.4479 141.923 15.6417V15.6399Z" fill="white"/>
<path d="M138.38 10.6063C138.352 8.59319 135.625 6.63131 133.645 7.63145C132.39 8.26408 131.902 9.37392 132.173 10.6081C132.407 11.6649 133.185 12.581 134.178 13.0691C135.329 13.6359 136.424 13.2831 137.353 12.4895C138.158 11.8039 138.393 11.3632 138.382 10.6063H138.38Z" fill="white"/>
</g>
<defs>
<linearGradient id="paint0_linear_113_322" x1="127.485" y1="26.5848" x2="150.637" y2="2.54307" gradientUnits="userSpaceOnUse">
<stop stop-color="#FE003A"/>
<stop offset="1" stop-color="#FF4703"/>
</linearGradient>
<clipPath id="clip0_113_322">
<rect width="27" height="26" fill="white" transform="translate(126.016 2)"/>
</clipPath>
</defs>
</svg>
