<svg width="29" height="24" viewBox="0 0 29 24" fill="none" xmlns="http://www.w3.org/2000/svg">
<g clip-path="url(#clip0_160_148)">
<path d="M28.9281 4.24982L24.4784 8.49963H22.0191L25.4571 5.2158H9.51509C7.32178 5.2158 5.44293 5.9029 4.08187 7.20295C2.83459 8.39431 2.12716 10.0356 2.08614 11.8315H0C0.0877678 6.87478 4.07922 3.28383 9.51509 3.28383H25.4571L22.0191 0H24.4784L28.9281 4.24982Z" fill="#949494"/>
<path d="M29 12.1685C28.9118 17.1252 24.9208 20.7161 19.4849 20.7161H3.54292L6.98086 23.9999H4.5216L0.0718994 19.7501L4.5216 15.5003H6.98086L3.54292 18.7841H19.4849C21.6782 18.7841 23.5571 18.0971 24.9181 16.797C26.1654 15.6056 26.8728 13.9643 26.9139 12.1685H29Z" fill="#949494"/>
</g>
<defs>
<clipPath id="clip0_160_148">
<rect width="29" height="24" fill="white"/>
</clipPath>
</defs>
</svg>
