<svg width="100" height="96" viewBox="0 0 100 96" fill="none" xmlns="http://www.w3.org/2000/svg">
<g clip-path="url(#clip0_120_144)">
<path d="M75 96H25C6.1955 96 0 90.0523 0 72V24C0 5.94768 6.1955 0 25 0H75C93.8045 0 100 5.94768 100 24V72C100 90.0523 93.8045 96 75 96Z" fill="url(#paint0_linear_120_144)"/>
<path d="M77.5176 73.8229L76.0197 72.2094C74.7328 70.7984 73.2489 69.509 72.9114 67.5579C72.6582 66.0592 72.5668 64.6077 72.0534 63.1562C70.7736 59.5377 68.6428 56.3377 66.2588 53.2997C65.0141 51.7132 64.6695 51.3621 63.2982 49.8769C59.7609 46.022 56.6737 42.444 52.7145 38.9672C51.6878 38.0693 50.4852 36.449 48.7131 37.1714C47.9817 37.4752 47.5316 38.1031 46.9972 38.6431C46.301 39.3385 45.5837 40.0136 44.8523 40.682C43.9592 41.4921 43.038 42.282 42.0886 43.0381C41.3432 43.6389 40.3868 44.1385 40.0281 45.0566C39.4233 46.6026 40.436 47.7503 41.9409 49.3841C48.2489 56.2364 54.5288 63.406 62.398 68.7326C63.8467 69.7115 65.5556 70.4946 67.2785 70.8929C69.6835 71.4465 71.7018 71.8448 73.3685 73.7216C73.9873 74.417 74.557 75.1393 75.2391 75.7672C75.9423 76.4153 76.3361 76.2465 76.7932 75.855C76.9972 75.6794 77.2222 75.4904 77.4262 75.3149C77.8833 74.9233 78.1505 74.498 77.5176 73.8229ZM58.917 50.363C58.8256 50.768 58.5302 51.0921 57.8833 51.2204C57.2785 51.3351 56.6596 51.1461 56.1181 50.8625C55.0281 50.2955 54.1069 49.6204 53.3263 48.6955C52.4402 47.649 50.7525 45.3672 52.4473 44.314C52.4613 44.3005 52.4824 44.2938 52.4965 44.2803C54.5921 43.0583 57.3277 46.7242 58.1927 48.0676C58.5865 48.6752 59.0788 49.6541 58.917 50.3697V50.363Z" fill="white"/>
<path d="M45.7946 31.7772C45.6891 24.3443 35.5907 17.1004 28.2559 20.7932C23.6075 23.1291 21.8002 27.227 22.8058 31.784C23.6708 35.6861 26.5541 39.0683 30.232 40.8709C34.4936 42.9637 38.5513 41.6608 41.9901 38.7308C44.9718 36.1991 45.8438 34.5721 45.8016 31.7772H45.7946Z" fill="white"/>
</g>
<defs>
<linearGradient id="paint0_linear_120_144" x1="5.44304" y1="90.7747" x2="90.9144" y2="1.74199" gradientUnits="userSpaceOnUse">
<stop stop-color="#FE003A"/>
<stop offset="1" stop-color="#FF4703"/>
</linearGradient>
<clipPath id="clip0_120_144">
<rect width="100" height="96" fill="white"/>
</clipPath>
</defs>
</svg>
